<?xml version="1.0" encoding="utf-8"?>
<!-- Generator: Adobe Illustrator 23.0.0, SVG Export Plug-In . SVG Version: 6.00 Build 0)  -->
<svg version="1.1" id="Layer_1" xmlns="http://www.w3.org/2000/svg" xmlns:xlink="http://www.w3.org/1999/xlink" x="0px" y="0px"
	 viewBox="0 0 12 12" style="enable-background:new 0 0 12 12;" xml:space="preserve" width="15px" height="15px">
    <path style="fill:#fff;" d="M11.54,9.8L8.4,6.65c-0.36-0.36-0.36-0.94,0-1.3l3.15-3.15c0.49-0.49,0.5-1.3,0-1.78c-0.48-0.46-1.25-0.46-1.73,0.02L6.65,3.6c-0.36,0.36-0.94,0.36-1.3,0L2.2,0.46c-0.49-0.49-1.3-0.5-1.78,0c-0.46,0.48-0.46,1.25,0.02,1.73L3.6,5.35c0.36,0.36,0.36,0.94,0,1.3L0.46,9.8c-0.49,0.49-0.5,1.3,0,1.78c0.48,0.46,1.25,0.46,1.73-0.02L5.35,8.4c0.36-0.36,0.94-0.36,1.3,0l3.16,3.16c0.48,0.48,1.24,0.48,1.73,0.02C12.04,11.1,12.03,10.29,11.54,9.8z"></path>
</svg>