<?xml version="1.0" encoding="utf-8"?>
<!-- Generator: Adobe Illustrator 16.0.0, SVG Export Plug-In . SVG Version: 6.00 Build 0)  -->
<!DOCTYPE svg PUBLIC "-//W3C//DTD SVG 1.1//EN" "http://www.w3.org/Graphics/SVG/1.1/DTD/svg11.dtd">
<svg version="1.1" id="Layer_1" xmlns="http://www.w3.org/2000/svg" xmlns:xlink="http://www.w3.org/1999/xlink" x="0px" y="0px"
	 width="715.548px" height="123.402px" viewBox="-178.363 -37.995 715.548 123.402"
	 enable-background="new -178.363 -37.995 715.548 123.402" xml:space="preserve">
<path display="none" fill="#363636" d="M-51.322,17.754c0-12.018,8.474-22.387,22.679-22.387c14.212,0,22.688,10.37,22.688,22.387
	c0,12.279-8.479,22.394-22.688,22.394C-42.848,40.147-51.322,30.033-51.322,17.754z M-17.712,17.754
	c0-6.548-4.1-12.293-10.932-12.293c-7.093,0-10.934,5.745-10.934,12.293c0,6.813,3.84,12.58,10.934,12.58
	C-21.811,30.333-17.712,24.568-17.712,17.754z"/>
<path display="none" fill="#363636" d="M27.65,13.377c0-5.994-3.013-7.917-7.92-7.917c-4.377,0-7.938,2.451-9.843,4.907v29.778
	H-1.323V-4.915h11.49v6.552c2.73-3.29,7.922-6.552,15.033-6.552c9.284,0,13.91,5.185,13.91,13.662v31.397H27.933L27.65,13.377z"/>
<path display="none" fill="#363636" d="M60.693,28.668V5.177h-7.081v-9.811h7.081v-6.833l11.494-3.573v10.651h8.724v9.847h-8.724
	v20.475c0,2.733,1.363,4.65,3.815,4.65c1.645,0,3.293-0.551,3.821-1.368l2.453,8.505c-1.616,1.617-4.629,2.738-9.287,2.738
	C64.791,40.458,60.693,36.352,60.693,28.668z"/>
<path display="none" fill="#363636" d="M115.879,13.097c0-5.994-2.98-7.92-7.891-7.92c-4.376,0-7.947,2.484-9.842,4.938v29.781
	h-11.21v-60.121h11.21V1.638c2.73-3.29,8.165-6.552,15-6.552c9.316,0,13.964,5.185,13.964,13.385v31.427h-11.231V13.097
	L115.879,13.097z"/>
<path display="none" fill="#363636" d="M154.427-4.633C167.242-4.633,176,4.93,176,18.844v2.483h-31.979
	c0.854,5.464,4.954,9.813,12.294,9.813c4.096,0,8.753-1.617,11.484-4.35l4.911,7.339c-4.354,4.094-10.937,6.017-17.765,6.017
	c-13.106,0-22.921-8.75-22.921-22.394C132.03,5.46,141.287-4.633,154.427-4.633z M143.769,13.937h21.054
	c-0.31-4.101-3.047-9.564-10.686-9.564C147.306,4.372,144.325,9.557,143.769,13.937z"/>
<path display="none" fill="#BC793C" d="M212.889-4.633c8.766,0,14.23,3.818,16.96,7.916l-7.391,6.833
	c-1.925-3.013-5.215-4.657-9.001-4.657c-6.833,0-11.488,4.906-11.488,12.293c0,7.362,4.897,12.58,11.488,12.58
	c3.784,0,7.076-1.665,9.001-4.657l7.391,6.832c-2.727,4.099-8.194,7.951-16.96,7.951c-13.099,0-22.665-9.316-22.665-22.42
	C190.224,4.65,199.792-4.633,212.889-4.633z"/>
<path display="none" fill="#BC793C" d="M234.76-19.946h11.176v60.091H234.76V-19.946z"/>
<path display="none" fill="#BC793C" d="M250.847,17.754c0-12.018,8.511-22.387,22.707-22.387c14.188,0,22.679,10.37,22.679,22.387
	c0,12.279-8.49,22.394-22.679,22.394C259.358,40.147,250.847,30.033,250.847,17.754z M284.452,17.754
	c0-6.548-4.102-12.293-10.899-12.293c-6.84,0-10.931,5.745-10.931,12.293c0,6.813,3.813,12.58,10.931,12.58
	C280.657,30.333,284.452,24.568,284.452,17.754z"/>
<path display="none" fill="#BC793C" d="M323.823-4.633c8.74,0,14.207,3.818,16.941,7.916l-7.372,6.833
	c-1.926-3.013-5.215-4.657-9.026-4.657c-6.825,0-11.474,4.906-11.474,12.293c0,7.362,4.908,12.58,11.474,12.58
	c3.809,0,7.103-1.665,9.026-4.657l7.372,6.832c-2.734,4.099-8.201,7.951-16.941,7.951c-13.099,0-22.666-9.316-22.666-22.42
	C301.157,4.65,310.412-4.633,323.823-4.633z"/>
<path display="none" fill="#BC793C" d="M362.076,22.693l-5.21,5.466v11.986H345.69v-60.091h11.177v35.25l17.206-20.218h13.954
	l-17.762,20.495l18.302,24.564h-14.204L362.076,22.693z"/>
<g display="none">
	<path display="inline" fill="#363636" d="M-87.656,14.462c1.657,0,3.009,1.47,3.009,3.292c0,1.83-1.353,3.263-3.009,3.263
		c-1.66,0-3.005-1.436-3.005-3.263C-90.66,15.933-89.314,14.462-87.656,14.462z"/>
	<path display="inline" fill="#363636" d="M-161.696,14.462c1.659,0,2.995,1.47,2.995,3.292c0,1.83-1.336,3.263-2.995,3.263
		c-1.66,0-3.004-1.436-3.004-3.263C-164.699,15.933-163.356,14.462-161.696,14.462z"/>
</g>
<g display="none">
	<path display="inline" fill="#363636" d="M-124.819-23.237c1.659,0,3.01,1.466,3.01,3.292c0,1.804-1.351,3.273-3.01,3.273
		c-1.661,0-2.996-1.471-2.996-3.273C-127.815-21.771-126.479-23.237-124.819-23.237z"/>
	<path display="inline" fill="#363636" d="M-124.819,52.194c1.659,0,3.01,1.438,3.01,3.294c0,1.794-1.351,3.231-3.01,3.231
		c-1.661,0-2.996-1.438-2.996-3.231C-127.815,53.632-126.479,52.194-124.819,52.194z"/>
</g>
<g display="none">
	<path display="inline" fill="#363636" d="M-105.964-18.037c1.659,0,3.006,1.484,3.006,3.28c0,1.823-1.348,3.292-3.006,3.292
		c-1.664,0-2.998-1.469-2.998-3.292C-108.962-16.555-107.628-18.037-105.964-18.037z"/>
	<path display="inline" fill="#363636" d="M-143.394,46.981c1.661,0,3.013,1.496,3.013,3.29s-1.353,3.29-3.013,3.29
		c-1.661,0-3.009-1.494-3.009-3.29C-146.403,48.477-145.055,46.981-143.394,46.981z"/>
</g>
<g display="none">
	<path display="inline" fill="#363636" d="M-92.566-4.107c1.658,0,2.991,1.466,2.991,3.293c0,1.791-1.333,3.259-2.991,3.259
		c-1.661,0-3.013-1.468-3.013-3.259C-95.578-2.64-94.227-4.107-92.566-4.107z"/>
	<path display="inline" fill="#363636" d="M-156.78,33.065c1.659,0,3.007,1.446,3.007,3.296c0,1.793-1.348,3.229-3.007,3.229
		c-1.66,0-3.012-1.437-3.012-3.229C-159.791,34.509-158.438,33.065-156.78,33.065z"/>
</g>
<g display="none">
	<path display="inline" fill="#363636" d="M-143.677-18.037c1.664,0,3.017,1.484,3.017,3.28c0,1.823-1.354,3.292-3.017,3.292
		c-1.659,0-2.998-1.469-2.998-3.292C-146.674-16.555-145.335-18.037-143.677-18.037z"/>
	<path display="inline" fill="#363636" d="M-105.692,46.727c1.659,0,3.01,1.438,3.01,3.296c0,1.797-1.351,3.23-3.01,3.23
		c-1.66,0-3.004-1.436-3.004-3.23C-108.697,48.166-107.352,46.727-105.692,46.727z"/>
</g>
<g display="none">
	<path display="inline" fill="#363636" d="M-92.566,33.318c1.658,0,2.991,1.494,2.991,3.289c0,1.793-1.333,3.291-2.991,3.291
		c-1.661,0-3.013-1.494-3.013-3.291C-95.578,34.812-94.227,33.318-92.566,33.318z"/>
	<path display="inline" fill="#363636" d="M-156.78-4.387c1.659,0,3.007,1.47,3.007,3.293c0,1.825-1.348,3.294-3.007,3.294
		c-1.66,0-3.012-1.468-3.012-3.294C-159.791-2.918-158.438-4.387-156.78-4.387z"/>
</g>
<path display="none" fill="#363636" d="M-124.819,12.571c2.873,0,5.2,2.33,5.2,5.184c0,2.857-2.328,5.188-5.2,5.188
	c-2.861,0-5.188-2.331-5.188-5.188C-130.008,14.9-127.68,12.571-124.819,12.571z"/>
<polygon display="none" fill="#363636" points="-94.214,-9.012 -125.084,17.198 -124.266,18.563 "/>
<path display="none" fill="#BC793C" d="M-70.982,17.754c0,30.032-24.057,54.629-53.56,54.629s-53.821-24.598-53.821-54.629
	c0-30.062,24.038-54.645,53.545-54.645C-95.301-36.89-70.982-12.307-70.982,17.754z M-124.819-27.865
	c-24.583,0-44.807,20.497-44.807,45.618c0,25.127,19.949,45.625,44.807,45.625c24.872,0,44.81-20.498,44.81-45.625
	C-80.01-7.367-99.948-27.865-124.819-27.865z"/>
<path display="none" fill="#363636" d="M-124.819,14.743L-124.819,14.743c-0.813,0-2.18-0.807-2.18-1.645l1.367-25.406
	c0-0.806,0.271-1.634,0.813-1.634c0.553,0,1.103,0.829,1.103,1.634l1.366,25.403C-122.628,13.937-123.993,14.743-124.819,14.743z"/>
<path display="none" fill="#363636" d="M-128.642,20.511l-16.937-0.839c-1.096,0-1.917-0.832-1.917-1.921
	c0-0.804,0.82-1.923,1.917-1.923l16.937-0.811c1.088,0,1.915,1.648,1.915,2.732l0,0C-126.727,18.842-127.552,20.511-128.642,20.511z
	"/>
<g>
	<g display="none">
		<path display="inline" fill="#ECEDEF" d="M-70.677,31.927c0.129-21.874-16.397-39.953-37.688-42.223l0.917-0.739l-16.756-12.668
			l0.056,9.665c-20.939,5.008-36.559,23.863-36.559,46.305c0,26.229,21.338,47.561,47.586,47.561
			c25.345,0,46.207-19.783,47.521-45.05l-5.172-0.289C-70.723,33.663-70.68,32.819-70.677,31.927z"/>
		<path display="inline" fill="#E3E4E6" d="M-71.15,31.306c0.126-21.875-16.402-39.952-37.688-42.233l0.915-0.729l-16.757-12.672
			l0.055,9.663c-20.937,5.004-36.557,23.863-36.557,46.303c0,26.241,21.337,47.568,47.583,47.568
			c25.342,0,46.21-19.783,47.523-45.054l-5.172-0.285C-71.197,33.039-71.152,32.19-71.15,31.306z"/>
		<path display="inline" fill="#DADBDD" d="M-71.623,30.675c0.123-21.873-16.4-39.951-37.688-42.225l0.917-0.734l-16.757-12.668
			l0.048,9.667c-20.936,5.002-36.553,23.854-36.553,46.294c0,26.242,21.341,47.574,47.584,47.574
			c25.341,0,46.209-19.784,47.523-45.057l-5.172-0.284C-71.669,32.41-71.625,31.56-71.623,30.675z"/>
		<path display="inline" fill="#D1D2D4" d="M-72.098,30.055c0.122-21.876-16.402-39.951-37.688-42.23l0.921-0.729l-16.757-12.675
			l0.051,9.665c-20.938,5.004-36.556,23.866-36.556,46.294c0,26.247,21.341,47.583,47.586,47.583
			c25.338,0,46.205-19.797,47.521-45.063l-5.173-0.283C-72.143,31.788-72.1,30.935-72.098,30.055z"/>
		<path display="inline" fill="#C8C9CB" d="M-72.571,29.432c0.121-21.873-16.402-39.955-37.692-42.238l0.918-0.721L-126.1-26.201
			l0.05,9.664c-20.936,4.996-36.556,23.854-36.556,46.292c0,26.237,21.345,47.585,47.588,47.585
			c25.338,0,46.209-19.796,47.523-45.067l-5.175-0.278C-72.617,31.159-72.572,30.311-72.571,29.432z"/>
		<path display="inline" fill="#BFBFC2" d="M-73.043,28.803c0.119-21.875-16.402-39.954-37.688-42.232l0.918-0.729l-16.759-12.673
			l0.047,9.668c-20.938,5.003-36.553,23.859-36.553,46.285c0,26.248,21.344,47.58,47.587,47.58c25.338,0,46.206-19.782,47.524-45.06
			l-5.173-0.276C-73.09,30.538-73.046,29.679-73.043,28.803z"/>
		<path display="inline" fill="#B6B6B9" d="M-73.518,28.18c0.071-21.872-16.401-39.949-37.689-42.24l0.919-0.714l-16.759-12.681
			l0.047,9.665c-20.935,4.998-36.55,23.854-36.55,46.287c0,26.254,21.34,47.584,47.585,47.584c25.338,0,46.208-19.783,47.525-45.064
			l-5.172-0.274C-73.561,29.915-73.523,29.058-73.518,28.18z"/>
		<path display="inline" fill="#ADADB0" d="M-73.993,27.552c0.12-21.874-16.401-39.953-37.69-42.236l0.921-0.719l-16.755-12.677
			l0.043,9.666c-20.933,4.996-36.551,23.854-36.551,46.287c0,26.251,21.343,47.585,47.585,47.585
			c25.339,0,46.213-19.781,47.523-45.074l-5.171-0.265C-74.036,29.283-73.996,28.421-73.993,27.552z"/>
		<path display="inline" fill="#A4A4A7" d="M-74.47,26.928c0.077-21.873-16.4-39.949-37.686-42.242l0.92-0.716l-16.757-12.682
			l0.042,9.668c-20.931,4.996-36.551,23.858-36.551,46.283c0,26.262,21.347,47.597,47.582,47.597
			c25.342,0,46.212-19.796,47.528-45.075l-5.172-0.273C-74.509,28.664-74.472,27.8-74.47,26.928z"/>
		<path display="inline" fill="#9A9B9E" d="M-74.941,26.307c0.07-21.873-16.403-39.956-37.689-42.246l0.924-0.711l-16.759-12.681
			l0.04,9.668c-20.93,4.991-36.546,23.849-36.546,46.279c0,26.247,21.345,47.599,47.58,47.599c25.338,0,46.212-19.797,47.529-45.077
			l-5.174-0.271C-74.979,28.031-74.946,27.168-74.941,26.307z"/>
		<path display="inline" fill="#919295" d="M-75.417,25.677c0.119-21.871-16.398-39.951-37.689-42.238l0.923-0.718l-16.758-12.679
			l0.041,9.667c-20.933,4.997-36.547,23.854-36.547,46.274c0,26.26,21.346,47.593,47.578,47.593
			c25.337,0,46.216-19.781,47.53-45.068l-5.175-0.268C-75.456,27.414-75.418,26.542-75.417,25.677z"/>
		<path display="inline" fill="#88898C" d="M-75.891,25.056c0.059-21.874-16.401-39.951-37.691-42.248l0.929-0.708l-16.764-12.687
			l0.044,9.669c-20.933,4.992-36.551,23.849-36.551,46.278c0,26.264,21.351,47.594,47.583,47.594
			c25.338,0,46.214-19.783,47.53-45.069l-5.173-0.27C-75.931,26.788-75.892,25.918-75.891,25.056z"/>
		<path display="inline" fill="#7F8083" d="M-76.362,24.425c0.067-21.869-16.404-39.949-37.691-42.24l0.925-0.709l-16.762-12.683
			l0.041,9.668c-20.931,4.99-36.547,23.847-36.547,46.266c0,26.271,21.35,47.607,47.582,47.607c25.334,0,46.213-19.784,47.53-45.084
			l-5.174-0.257C-76.4,26.16-76.367,25.287-76.362,24.425z"/>
		<path display="inline" fill="#76767A" d="M-76.837,23.805c0.068-21.874-16.403-39.948-37.691-42.252l0.926-0.706l-16.757-12.687
			l0.035,9.668c-20.93,4.991-36.546,23.85-36.546,46.271c0,26.263,21.349,47.612,47.581,47.612
			c25.336,0,46.216-19.798,47.533-45.089l-5.175-0.261C-76.876,25.539-76.841,24.663-76.837,23.805z"/>
		<path display="inline" fill="#6D6D71" d="M-77.311,23.182c0.072-21.871-16.403-39.955-37.693-42.251l0.93-0.704l-16.761-12.688
			l0.038,9.668c-20.929,4.992-36.549,23.849-36.549,46.271c0,26.257,21.35,47.611,47.582,47.611
			c25.336,0,46.218-19.796,47.532-45.095l-5.174-0.253C-77.351,24.91-77.316,24.027-77.311,23.182z"/>
		<path display="inline" fill="#646468" d="M-77.788,22.553c0.062-21.873-16.402-39.951-37.688-42.248l0.928-0.708l-16.757-12.684
			l0.032,9.669c-20.927,4.989-36.543,23.851-36.543,46.262c0,26.265,21.351,47.604,47.578,47.604c25.338,0,46.22-19.782,47.53-45.08
			l-5.174-0.257C-77.82,24.289-77.79,23.407-77.788,22.553z"/>
		<path display="inline" fill="#5B5B5F" d="M-78.261,21.93c0.116-21.87-16.4-39.949-37.689-42.256l0.929-0.698l-16.759-12.689
			l0.031,9.669c-20.923,4.983-36.542,23.843-36.542,46.267c0,26.271,21.351,47.607,47.579,47.607
			c25.336,0,46.221-19.784,47.532-45.084l-5.172-0.256C-78.296,23.666-78.261,22.772-78.261,21.93z"/>
	</g>
	<g>
		<g>
			<path fill="#394154" d="M-71.155,21.759c-0.117,25.211-20.668,45.527-45.874,45.371c-25.191-0.092-45.507-20.621-45.375-45.837
				c0.146-25.206,20.677-45.531,45.867-45.405C-91.329-23.952-71.014-3.426-71.155,21.759z"/>
			<path fill="#FFFFFF" d="M-79.403,21.736c-0.113,20.671-16.923,37.295-37.572,37.156c-20.645-0.074-37.278-16.888-37.168-37.548
				c0.108-20.668,16.927-37.287,37.572-37.19C-95.937-15.742-79.285,1.083-79.403,21.736z"/>
			
				<line fill="none" stroke="#394154" stroke-width="2.7866" stroke-linecap="round" stroke-linejoin="round" stroke-miterlimit="10" x1="-116.991" y1="-12.722" x2="-117.026" y2="-5.869"/>
			
				<line fill="none" stroke="#394154" stroke-width="2.7866" stroke-linecap="round" stroke-linejoin="round" stroke-miterlimit="10" x1="-117.321" y1="49.641" x2="-117.354" y2="56.49"/>
			
				<line fill="none" stroke="#394154" stroke-width="2.7866" stroke-linecap="round" stroke-linejoin="round" stroke-miterlimit="10" x1="-151.774" y1="21.698" x2="-144.906" y2="21.736"/>
			
				<line fill="none" stroke="#394154" stroke-width="2.7866" stroke-linecap="round" stroke-linejoin="round" stroke-miterlimit="10" x1="-89.421" y1="22.011" x2="-82.563" y2="22.083"/>
			
				<line fill="none" stroke="#394154" stroke-width="2.7866" stroke-linecap="round" stroke-linejoin="round" stroke-miterlimit="10" x1="-141.562" y1="-2.656" x2="-136.74" y2="2.214"/>
			
				<line fill="none" stroke="#394154" stroke-width="2.7866" stroke-linecap="round" stroke-linejoin="round" stroke-miterlimit="10" x1="-97.594" y1="41.52" x2="-92.766" y2="46.395"/>
			
				<line fill="none" stroke="#394154" stroke-width="2.7866" stroke-linecap="round" stroke-linejoin="round" stroke-miterlimit="10" x1="-141.021" y1="46.945" x2="-136.279" y2="42.005"/>
			
				<line fill="none" stroke="#394154" stroke-width="2.7866" stroke-linecap="round" stroke-linejoin="round" stroke-miterlimit="10" x1="-98.036" y1="1.761" x2="-93.309" y2="-3.2"/>
			<polygon fill="#434142" points="-115.545,20.99 -116.571,4.571 -117.641,20.977 			"/>
			<polygon fill="#434142" points="-116.609,20.43 -142.652,21.406 -116.614,22.555 			"/>
			<polygon fill="#394154" points="-113.992,25.888 -114.421,26.13 -130.59,-1.961 -130.142,-2.19 			"/>
			<path fill="#434142" d="M-114.403,21.518c-0.019,1.208-0.999,2.189-2.211,2.182c-1.215-0.013-2.178-0.989-2.172-2.193
				c0-1.244,0.987-2.197,2.197-2.192C-115.386,19.317-114.394,20.327-114.403,21.518z"/>
		</g>
		<path fill="#E2B139" d="M-73.317,25.037c-1.228,23.529-20.604,42-44.111,42c-24.356,0-44.175-19.896-44.175-44.34
			c0-20.358,13.693-37.539,32.293-42.736l0.061,9.718l17.952-13.917l-18.105-13.757l0.063,10.479
			c-22.611,5.418-39.462,25.853-39.462,50.213c0,28.404,23.043,51.575,51.375,51.575c27.351,0,49.889-21.469,51.318-48.864
			L-73.317,25.037z"/>
	</g>
</g>
<text transform="matrix(0.9375 0 0 1 -60.6301 53.0417)" fill="#E2B537" font-family="'Moderna'" font-size="80.9129">timework</text>
<text transform="matrix(0.9375 0 0 1 290.3538 53.0417)" fill="#394154" font-family="'Moderna'" font-size="80.9129">Eureka</text>
<text transform="matrix(1.0832 0 0 1 94.7175 49.6062)" display="none" enable-background="new    " font-family="'Moderna'" font-size="80.9129">EUREKA</text>
</svg>
